<svg xmlns="http://www.w3.org/2000/svg" width="1365.333" height="1365.333" version="1.0" viewBox="0 0 1024 1024"><path d="M241.4 11.1c3.3 6.1 7 12.7 8.1 14.7 1.2 2.1 3.7 6.6 5.7 10.2 1.9 3.6 7.9 14.4 13.3 24 5.3 9.6 11.3 20.4 13.3 24 1.9 3.6 4.6 8.2 5.9 10.2 1.3 2.1 2.3 4 2.3 4.3s2.6 5.2 5.9 10.8c3.2 5.6 7.4 13 9.2 16.5 1.9 3.5 3.9 7.1 4.4 8 .6.9 4.7 8.4 9.3 16.7 4.6 8.2 8.7 15.7 9.2 16.5.9 1.5 13 23.3 18 32.5 3.1 5.7 6.5 11.8 12.5 22.5 6.3 11.2 9.4 16.9 12.8 23 1.6 3 4.9 8.9 7.2 13s10.1 18.1 17.3 31c7.1 12.9 14.1 25.5 15.5 28 1.3 2.5 10.3 18.7 20 36 9.6 17.3 18.6 33.5 20 36 2.3 4.1 13.7 24.8 20.1 36.2 1.4 2.7 3.8 6.9 5.2 9.5 7.2 13 17.9 32.3 20.1 36.3 8.4 14.9 17.8 32 19.5 35.2l2 3.8H638c113.3 0 119.9-.1 120.4-1.8.3-.9 3.7-14.3 7.6-29.7 4-15.4 7.3-28.3 7.5-28.6s.7-2 1-3.7c.3-1.8 4.8-19.7 10.1-40 5.2-20.2 12.2-47.1 15.4-59.7 3.3-12.7 8-30.9 10.5-40.5s4.8-18.6 5.1-20 1-4.3 1.6-6.5 1.2-4.5 1.4-5c.1-.6 1.8-7.3 3.8-15 2.1-7.7 3.9-14.7 4-15.5.2-.8 3.2-12.3 6.6-25.5s6.3-24.5 6.4-25c.2-.6.8-3 1.5-5.5s1.4-5.2 1.6-6 .9-3.7 1.5-6.3c.7-2.8.9-5.2.4-5.6s-4.7-1.8-9.4-3.1c-4.7-1.2-9.8-2.6-11.5-3.1-1.6-.5-10.4-3-19.5-5.4-9.1-2.5-18.3-5.1-20.5-5.7s-4.4-1.2-5-1.4c-.5-.1-7.5-2.1-15.5-4.4s-15.4-4.3-16.4-4.6c-1-.2-6-1.5-11-3-5-1.4-9.8-2.8-10.6-3s-13.6-3.7-28.5-7.9c-14.8-4.2-27.7-7.7-28.5-7.9s-7.3-2.1-14.5-4.1c-7.1-2-13.7-3.8-14.5-4.1-.8-.2-4.2-1.1-7.5-2s-6.4-1.7-7-1.9c-.5-.1-1.7-.5-2.5-.8s-6.9-2-13.5-3.7c-6.6-1.8-13.1-3.6-14.5-4-1.4-.5-10.1-3-19.5-5.5-9.3-2.6-28.2-7.8-41.8-11.6-13.6-3.9-25.6-7.2-26.5-7.4s-9.8-2.7-19.7-5.5-18.7-5.3-19.5-5.5-11.4-3.1-23.5-6.5-25.1-7-29-8.1c-3.8-1-10.4-2.8-14.5-4-4.1-1.1-8.8-2.4-10.5-2.9-1.6-.4-11.3-3.1-21.5-6-10.2-2.8-19.2-5.3-20-5.5s-6.2-1.7-12-3.4c-5.8-1.6-25.8-7.2-44.5-12.5-41.7-11.6-42.8-11.9-44-12.1-.5-.2-3.4-1-6.4-1.9S235.5 0 235.4 0s2.6 5 6 11.1m84.4 253.4c-.2.2-2.8 1.1-5.8 1.9-3 .7-15.4 4.2-27.5 7.6s-22.7 6.3-23.5 6.5-4 1.1-7 2-6.2 1.7-7 1.9-5.8 1.6-11 3c-11.6 3.3-11.7 3.3-16 4.5-1.9.5-7.5 2.1-12.5 3.5-4.9 1.4-17.1 4.7-27 7.5-9.9 2.7-24.5 6.8-32.5 9.1-8 2.2-17.6 4.9-21.5 6-3.8 1-12.8 3.5-20 5.5-7.1 2-16.8 4.7-21.5 6-4.7 1.2-22.4 6.2-39.5 11s-31.7 8.8-32.5 9c-3 .8-20.5 5.7-20.7 5.9s2.3 10.3 14.7 58.1c9.1 35.2 15.2 59 15.6 60.5.2.8 3.1 12.1 6.4 25s6.2 24.2 6.4 25 1.4 5.1 2.6 9.5 2.3 8.9 2.5 10c.3 1.1 1.6 6.5 3.1 11.9 1.4 5.5 2.7 10.8 2.9 11.8s1.4 5.3 2.5 9.6c1.2 4.2 2.3 8.4 2.5 9.2l2 8 2 8c.2.8 1.7 6.7 3.4 13 1.6 6.3 5 19.4 7.5 29 2.4 9.6 5.6 21.8 7 27 3.2 12.4 14.7 57.1 15.1 59 .2.8 2.1 8.5 4.4 17 2.2 8.5 5.2 20 6.6 25.5s4.6 17.9 7.1 27.5 4.7 18.2 4.9 19c.4 1.8 8.4 32.7 12.7 49 1.6 6.3 3.1 12.2 3.3 13s2.6 10.5 5.5 21.5c2.8 11 5.3 20.7 5.6 21.5.2.8 1.4 5.8 2.8 11 9.3 36.4 13.8 53.5 14.1 53.8.3.4 3.1-4.1 7.8-12.8 1.9-3.6 8.6-15.7 14.9-27 13.8-24.8 16.8-30.2 22.5-40.5 2.4-4.4 5.1-9.1 5.9-10.5s2.8-5.2 4.6-8.5c1.7-3.3 3.4-6.1 3.9-6.3s.9-.8.9-1.3c0-.7 10.4-19.8 42.8-77.9 1.3-2.5 4.9-9 8-14.5 3-5.5 6.4-11.6 7.6-13.5 1.1-1.9 2.1-3.7 2.1-4s.8-1.6 1.6-3c.9-1.4 10.1-17.8 20.4-36.5 10.4-18.7 25.4-45.7 33.3-60 8-14.3 15.8-28.5 17.5-31.5s9.6-17.2 17.5-31.5c8-14.3 18-32.3 22.2-40 6.6-12 26.6-47.9 34.7-62.5 2.6-4.5 7.5-13.5 12.4-22.3l2.6-4.9-3.9-7.1c-2.2-4-5.4-9.7-7-12.7-1.7-3-4.9-8.9-7.3-13-2.3-4.1-5.7-10.2-7.5-13.5s-5.3-9.5-7.6-13.7c-2.4-4.3-4.4-8.2-4.4-8.8 0-.5-.4-1-1-1-.5 0-1-.4-1-.9s-6.4-12.4-14.1-26.3c-7.8-13.9-15.4-27.6-16.9-30.3-1.5-2.8-9.2-16.7-17.2-31s-16-28.7-17.8-32-5-9.1-7.1-12.8c-2.2-3.8-3.9-7.1-3.9-7.4 0-.9-3.7-5.2-4.2-4.8m130.7 297c-1.2 1.9-23.4 41.6-28 50-5.8 10.7-24.9 45.2-26 47-.7 1.1-1.3 2.4-1.5 3-.1.5-1 2.1-1.9 3.5-1 1.4-3.5 5.6-5.6 9.5-2.2 3.8-5.4 9.7-7.2 13s-4.1 7.6-5.1 9.5c-.9 1.9-1.9 3.7-2.2 4s-1.2 1.8-2.1 3.5c-.9 1.6-10.1 18.2-20.4 36.8s-18.6 34-18.4 34.2c.4.3 26.8 27.8 44.2 45.9 4.3 4.4 15.4 16 24.7 25.6 9.2 9.6 20.3 21.2 24.6 25.7 4.4 4.4 15.8 16.3 25.4 26.3s20.4 21.3 24 25c12.3 12.7 44.5 46.2 51.8 53.9 4 4.2 15.7 16.3 25.9 26.9l18.6 19.2 7-7.2C605 995.1 633 966 650 948.3c6.9-7.1 22-22.8 33.5-34.8 11.6-12 23.9-24.9 27.5-28.5 3.6-3.7 14.4-15 24-25 9.6-10.1 20.2-21.1 23.5-24.5s14.6-15.1 25-26c10.5-10.8 22.2-23 26-27 3.9-4 14.9-15.4 24.5-25.5 9.6-10 20.9-21.7 25-26 14.8-15.3 47.6-49.4 51.5-53.5 2.2-2.4 13.5-14.1 25-26 23.8-24.7 25.3-26.3 50-52 9.9-10.3 22.4-23.3 27.8-28.9 5.3-5.5 9.7-10.3 9.7-10.6s-127.2-.5-282.6-.5c-281.6 0-282.7 0-283.9 2"/></svg>